<svg width="148" height="121" viewBox="0 0 148 121" fill="none" xmlns="http://www.w3.org/2000/svg">
<path d="M30.3023 108.037C30.3023 100.874 36.1117 95.0749 43.2872 95.0749C33.7239 95.0749 25.9699 87.3342 25.9699 77.7874V12.9625C25.9699 5.79933 20.1605 0 12.9849 0C5.80937 0 0 5.79933 0 12.9625V77.7874C0 101.661 19.3851 121 43.2872 121C36.1117 121 30.3023 115.201 30.3023 108.037Z" fill="url(#paint0_linear_6155_14245)"/>
<path d="M103.892 0C96.7161 0 90.9067 5.79933 90.9067 12.9625C90.9067 20.1257 96.7161 25.925 103.892 25.925C113.455 25.925 121.209 33.6657 121.209 43.2125V108.037C121.209 115.201 127.018 121 134.194 121C141.37 121 147.179 115.201 147.179 108.037V43.2125C147.179 19.3393 127.794 0 103.892 0Z" fill="url(#paint1_linear_6155_14245)"/>
<path d="M90.9068 12.9625C90.9068 5.79933 96.7162 0 103.892 0C79.9773 0 60.6045 19.3516 60.6045 43.2125V77.7874C60.6045 87.3342 52.8505 95.0749 43.2872 95.0749C36.1116 95.0749 30.3022 100.874 30.3022 108.037C30.3022 115.201 36.1116 121 43.2872 121C67.2016 121 86.5744 101.648 86.5744 77.7874V43.2125C86.5744 33.6657 94.3285 25.925 103.892 25.925C96.7162 25.925 90.9068 20.1257 90.9068 12.9625Z" fill="url(#paint2_linear_6155_14245)"/>
<defs>
<linearGradient id="paint0_linear_6155_14245" x1="-15.5696" y1="23.136" x2="62.7461" y2="101.575" gradientUnits="userSpaceOnUse">
<stop stop-color="#58828E"/>
<stop offset="1" stop-color="#C1D8DC"/>
</linearGradient>
<linearGradient id="paint1_linear_6155_14245" x1="94.7099" y1="3.28056" x2="156.348" y2="110.243" gradientUnits="userSpaceOnUse">
<stop stop-color="#58828E"/>
<stop offset="1" stop-color="#C1D8DC"/>
</linearGradient>
<linearGradient id="paint2_linear_6155_14245" x1="30.3022" y1="60.5" x2="103.892" y2="60.5" gradientUnits="userSpaceOnUse">
<stop stop-color="#58828E"/>
<stop offset="1" stop-color="#C1D8DC"/>
</linearGradient>
</defs>
</svg>
