<svg width="42" height="29" viewBox="0 0 42 29" fill="none" xmlns="http://www.w3.org/2000/svg">
<path d="M18.2054 8.66602H15.829C15.574 8.66602 15.3672 8.87315 15.3672 9.12866V9.72309C15.3672 9.9786 15.574 10.1857 15.829 10.1857H18.2054C18.4604 10.1857 18.6672 9.9786 18.6672 9.72309V9.12866C18.6672 8.87315 18.4604 8.66602 18.2054 8.66602Z" fill="#58828E"/>
<path d="M40.8182 17.1172L36.3454 9.97841C36.2223 9.77653 36.0907 9.59428 35.8892 9.4681L32.3457 7.21096L30.3025 5.90714L21.4382 0.262867C20.8868 -0.0876222 20.1842 -0.0876222 19.6328 0.262867L13.9314 3.89392L13.2344 4.33975C13.1169 4.41265 13.0469 4.54443 13.0469 4.68182V8.92134C13.0469 9.49054 12.9937 9.94196 12.879 10.2812C12.767 10.6233 12.6019 10.8701 12.3835 11.0159C12.1624 11.1673 11.8965 11.243 11.5774 11.243C11.2584 11.243 10.9953 11.1673 10.7797 11.0159C10.567 10.8701 10.4047 10.6233 10.2955 10.2812C10.2171 10.0289 10.164 9.71204 10.1416 9.33632C10.136 9.20453 10.1332 9.06715 10.1332 8.92134V7.05394C10.1332 6.73429 9.78051 6.54082 9.51181 6.71186L8.05915 7.63715L5.18462 9.4681C5.02508 9.56904 4.89913 9.70363 4.79836 9.85785H4.79556L0.25565 17.1059C-0.211776 17.8406 -0.0214461 18.8135 0.689489 19.3182L13.8922 28.6861C14.6535 29.2244 15.7087 29.0226 16.2125 28.2347L19.9547 22.2287C20.0695 22.0464 20.271 21.9343 20.4865 21.9343H20.5845C20.8 21.9343 21.0015 22.0464 21.1163 22.2315L24.8613 28.2459C25.3651 29.031 26.4203 29.2385 27.1816 28.7001L40.3843 19.3295C41.0953 18.8276 41.2856 17.8546 40.8182 17.1172ZM25.6002 8.12502C25.6002 7.90071 25.7822 7.71846 26.0061 7.71846H26.6862C26.7898 7.71846 26.8654 7.8194 26.8346 7.92034C26.7282 8.27083 26.5239 8.99424 26.5239 9.47932C26.5239 10.1943 26.6638 10.8112 26.9353 11.3299C26.8849 11.3467 26.829 11.3663 26.7702 11.3776C26.661 11.4056 26.5547 11.4224 26.4427 11.4224C26.2048 11.4224 26.0033 11.3383 25.8437 11.1729C25.6842 11.0075 25.6058 10.7327 25.6058 10.3513V8.12223L25.6002 8.12502ZM28.3068 13.43L21.0015 18.0817C20.7188 18.264 20.355 18.264 20.0695 18.0817L13.0021 13.5786C12.7166 13.3964 12.7698 12.9786 13.0805 12.8524C13.0833 12.8496 13.0861 12.8496 13.0889 12.8496C13.5227 12.673 13.8866 12.4094 14.1777 12.0477C14.4688 11.686 14.6843 11.2262 14.8298 10.6682C14.9726 10.1102 15.0425 9.44847 15.0425 8.68861V6.42866C15.0425 6.29127 15.1153 6.15949 15.2301 6.08658L19.8764 3.12285C20.2738 2.8705 20.7776 2.8705 21.1779 3.12285L23.585 4.6594C23.7193 4.74351 23.7893 4.89492 23.7697 5.05194L23.6857 5.70245C23.6633 5.89031 23.5094 6.03892 23.3191 6.05294C23.3191 6.05294 21.7545 5.85947 21.231 5.85947C20.7076 5.85947 20.271 5.94919 19.8847 6.13145C19.4985 6.3137 19.199 6.56886 18.9863 6.89692C18.7736 7.22498 18.6672 7.60631 18.6672 8.04372C18.6672 8.42785 18.7512 8.74749 18.9219 9.01106C19.0926 9.27182 19.3082 9.49053 19.5685 9.65876C19.8288 9.8298 20.0919 9.9728 20.355 10.0822C20.5817 10.1719 20.7944 10.2616 20.9959 10.3429C21.2003 10.4298 21.3626 10.5196 21.4858 10.6177C21.6089 10.713 21.6705 10.8308 21.6705 10.9682C21.6705 11.1364 21.6089 11.271 21.4858 11.3692C21.3626 11.4645 21.1639 11.5122 20.8896 11.5122C20.6153 11.5122 20.3578 11.4505 20.0807 11.3243C19.9043 11.2458 19.7224 11.142 19.5377 11.0187C19.3529 10.8981 19.1038 10.9458 18.9779 11.128L18.5105 11.815C18.3873 12 18.4321 12.2552 18.6168 12.3814C18.8855 12.5636 19.1822 12.7178 19.5069 12.8412C19.9715 13.0207 20.4221 13.1104 20.8476 13.1104C21.4522 13.1104 21.9588 13.0094 22.3674 12.8104C22.7761 12.6113 23.084 12.3421 23.2939 12C23.4366 11.7645 23.529 11.5122 23.5738 11.243C23.5794 11.2009 23.5794 11.1589 23.5738 11.1196C23.5346 10.8897 23.515 10.1971 23.515 10.1971C23.4982 10.1466 23.4786 10.0906 23.459 10.0429C23.3583 9.81859 23.2211 9.62792 23.0504 9.46529C22.8796 9.30547 22.6893 9.16808 22.485 9.05873C22.2779 8.94938 22.0707 8.85404 21.8608 8.77553C21.6341 8.68581 21.4242 8.60449 21.231 8.52879C21.0379 8.45869 20.884 8.37457 20.772 8.28485C20.6573 8.19793 20.6041 8.08297 20.6041 7.94558C20.6041 7.78295 20.6573 7.66238 20.772 7.57546C20.884 7.48854 21.0631 7.44648 21.301 7.44648C21.5081 7.44648 22.7761 7.57546 23.4114 8.03531C23.4814 8.08578 23.5178 8.16989 23.5178 8.25681V10.1382C23.5178 10.1579 23.5206 10.1775 23.5206 10.1915C23.5234 10.2111 23.6046 11.0691 23.5878 11.1785C23.627 11.4028 23.6829 11.6103 23.7557 11.801C23.9153 12.2103 24.1672 12.53 24.5142 12.7599C24.8585 12.9898 25.3091 13.1076 25.8605 13.1076C26.2048 13.1076 26.4987 13.0795 26.7394 13.0207C26.829 12.9982 27.3692 12.7963 27.7386 12.5188C27.8002 12.4739 27.8786 12.4711 27.9402 12.5159C28.0185 12.572 28.0969 12.6253 28.1809 12.673C28.2089 12.6926 28.2368 12.7094 28.2676 12.7234C28.5419 12.8692 28.5615 13.2534 28.2984 13.4216L28.3068 13.43ZM30.7783 10.4747C30.7027 10.7579 30.5768 10.9766 30.4116 11.1336C30.2437 11.2878 30.031 11.3635 29.7735 11.3635C29.516 11.3635 29.3088 11.2878 29.1381 11.1336C28.973 10.9766 28.847 10.7607 28.7658 10.4747C28.6875 10.1915 28.6455 9.85785 28.6455 9.47932C28.6455 9.10079 28.6875 8.76993 28.7658 8.48954C28.8134 8.32971 28.875 8.19232 28.9506 8.07456C29.0038 7.98483 29.0681 7.90632 29.1381 7.84184C29.306 7.68762 29.5188 7.60911 29.7735 7.60911C30.0282 7.60911 30.2409 7.68762 30.4116 7.84184C30.5768 7.99605 30.7027 8.21195 30.7783 8.48954C30.8455 8.72507 30.8791 8.99985 30.8903 9.31108C30.8931 9.36436 30.8959 9.42324 30.8959 9.47932C30.8959 9.86065 30.8539 10.1915 30.7783 10.4747Z" fill="#58828E"/>
</svg>
