<svg width="32" height="32" viewBox="0 0 32 32" fill="none" xmlns="http://www.w3.org/2000/svg">
<path d="M11.2724 5.54296C12.2337 2.72968 16.1206 2.64448 17.2603 5.28735L17.3568 5.54456L18.654 9.33846C18.9513 10.2085 19.4317 11.0047 20.0629 11.6734C20.694 12.342 21.4612 12.8675 22.3127 13.2144L22.6615 13.3446L26.4552 14.6403C29.2684 15.6016 29.3535 19.4888 26.7124 20.6285L26.4552 20.725L22.6615 22.0223C21.7912 22.3194 20.9947 22.7998 20.3259 23.431C19.657 24.0622 19.1313 24.8295 18.7842 25.6812L18.654 26.0284L17.3584 29.8239C16.3971 32.6372 12.5102 32.7224 11.3721 30.0811L11.2724 29.8239L9.97675 26.03C9.67965 25.1596 9.19932 24.3631 8.56816 23.6942C7.93701 23.0253 7.16972 22.4996 6.31808 22.1525L5.97086 22.0223L2.17716 20.7266C-0.63757 19.7653 -0.722767 15.8781 1.91996 14.74L2.17716 14.6403L5.97086 13.3446C6.84089 13.0473 7.63705 12.5668 8.30563 11.9356C8.97421 11.3045 9.49966 10.5372 9.84654 9.6857L9.97675 9.33846L11.2724 5.54296ZM27.1754 2.90471e-07C27.4761 -3.79345e-07 27.7708 0.0843633 28.026 0.243503C28.2812 0.402644 28.4866 0.630178 28.6189 0.900248L28.6961 1.08834L29.2587 2.73772L30.9096 3.30037C31.211 3.40277 31.4752 3.59234 31.6687 3.84505C31.8622 4.09776 31.9764 4.40224 31.9967 4.7199C32.017 5.03757 31.9426 5.35411 31.7828 5.62942C31.6231 5.90473 31.3852 6.12641 31.0993 6.26637L30.9096 6.34353L29.2603 6.90619L28.6977 8.55718C28.5951 8.85849 28.4054 9.12256 28.1526 9.31595C27.8998 9.50933 27.5953 9.62331 27.2777 9.64346C26.9601 9.6636 26.6436 9.589 26.3684 9.4291C26.0932 9.2692 25.8717 9.0312 25.7319 8.74527L25.6547 8.55718L25.0921 6.90779L23.4412 6.34514C23.1398 6.24274 22.8756 6.05318 22.6821 5.80047C22.4885 5.54775 22.3744 5.24327 22.354 4.92561C22.3337 4.60795 22.4082 4.2914 22.5679 4.01609C22.7277 3.74078 22.9656 3.5191 23.2515 3.37915L23.4412 3.30198L25.0905 2.73933L25.6531 1.08834C25.7615 0.770718 25.9666 0.494989 26.2396 0.299813C26.5126 0.104636 26.8398 -0.000201401 27.1754 2.90471e-07Z" fill="#C1D8DC"/>
</svg>
